<?xml version="1.0" encoding="UTF-8" standalone="no"?>
<svg
   xmlns:dc="http://purl.org/dc/elements/1.1/"
   xmlns:cc="http://creativecommons.org/ns#"
   xmlns:rdf="http://www.w3.org/1999/02/22-rdf-syntax-ns#"
   xmlns:svg="http://www.w3.org/2000/svg"
   xmlns="http://www.w3.org/2000/svg"
   xmlns:sodipodi="http://sodipodi.sourceforge.net/DTD/sodipodi-0.dtd"
   xmlns:inkscape="http://www.inkscape.org/namespaces/inkscape"
   width="1035.1179mm"
   height="250.95978mm"
   viewBox="0 0 1035.1179 250.95978"
   version="1.1"
   id="svg1277"
   inkscape:version="1.0.2 (e86c8708, 2021-01-15)"
   sodipodi:docname="eflowcalc-logo.svg">
  <defs
     id="defs1271" />
  <sodipodi:namedview
     id="base"
     pagecolor="#ffffff"
     bordercolor="#666666"
     borderopacity="1.0"
     inkscape:pageopacity="0.0"
     inkscape:pageshadow="2"
     inkscape:zoom="0.2166801"
     inkscape:cx="2262.0945"
     inkscape:cy="206.83756"
     inkscape:document-units="mm"
     inkscape:current-layer="layer1"
     inkscape:document-rotation="0"
     showgrid="false"
     fit-margin-top="30"
     fit-margin-left="30"
     fit-margin-right="30"
     fit-margin-bottom="30"
     inkscape:window-width="1920"
     inkscape:window-height="1027"
     inkscape:window-x="0"
     inkscape:window-y="25"
     inkscape:window-maximized="0" />
  <metadata
     id="metadata1274">
    <rdf:RDF>
      <cc:Work
         rdf:about="">
        <dc:format>image/svg+xml</dc:format>
        <dc:type
           rdf:resource="http://purl.org/dc/dcmitype/StillImage" />
        <dc:title></dc:title>
      </cc:Work>
    </rdf:RDF>
  </metadata>
  <g
     inkscape:label="Layer 1"
     inkscape:groupmode="layer"
     id="layer1"
     transform="translate(238.0701,-96.1438)">
    <path
       style="color:#000000;font-style:normal;font-variant:normal;font-weight:normal;font-stretch:normal;font-size:50.8px;line-height:1.25;font-family:sans-serif;font-variant-ligatures:normal;font-variant-position:normal;font-variant-caps:normal;font-variant-numeric:normal;font-variant-alternates:normal;font-variant-east-asian:normal;font-feature-settings:normal;font-variation-settings:normal;text-indent:0;text-align:end;text-decoration:none;text-decoration-line:none;text-decoration-style:solid;text-decoration-color:#000000;letter-spacing:normal;word-spacing:normal;text-transform:none;writing-mode:lr-tb;direction:ltr;text-orientation:mixed;dominant-baseline:auto;baseline-shift:baseline;text-anchor:end;white-space:normal;shape-padding:0;shape-margin:0;inline-size:0;clip-rule:nonzero;display:inline;overflow:visible;visibility:visible;isolation:auto;mix-blend-mode:normal;color-interpolation:sRGB;color-interpolation-filters:linearRGB;solid-color:#000000;solid-opacity:1;vector-effect:none;fill:#4d4d4d;fill-opacity:1;fill-rule:nonzero;stroke:none;stroke-width:1;stroke-linecap:round;stroke-linejoin:miter;stroke-miterlimit:4;stroke-dasharray:none;stroke-dashoffset:0;stroke-opacity:1;color-rendering:auto;image-rendering:auto;shape-rendering:auto;text-rendering:auto;enable-background:accumulate;stop-color:#000000"
       d="m -207.5842,219.47484 c 7.239,-1.0885 14.8284,-2.1027 22.9381,-2.9978 0.7184,-4.5981 1.7269,-8.0049 2.9952,-10.1057 2.732,-4.5257 6.2644,-6.9546 20.2225,-6.9546 v 0 c 13.958,0 17.4926,2.4297 20.2246,6.9551 0.6832,1.1316 1.3266,2.5683 1.8909,4.4003 0.2301,0.7469 0.4449,1.5616 0.6444,2.4355 7.084,-0.2487 14.5477,-0.4059 22.4518,-0.4548 -0.4677,-2.9197 -1.0868,-5.7518 -1.9347,-8.5043 -0.9985,-3.2416 -2.3195,-6.3822 -4.098,-9.3281 -7.1136,-11.7846 -21.3697,-17.6583 -39.1867,-17.6583 h 0.01 c -17.817,0 -32.0712,5.874 -39.1852,17.6585 -4.4334,7.3438 -6.239,15.4827 -6.9706,24.5544 z"
       id="path1655-2" />
    <path
       style="color:#000000;font-style:normal;font-variant:normal;font-weight:normal;font-stretch:normal;font-size:50.8px;line-height:1.25;font-family:sans-serif;font-variant-ligatures:normal;font-variant-position:normal;font-variant-caps:normal;font-variant-numeric:normal;font-variant-alternates:normal;font-variant-east-asian:normal;font-feature-settings:normal;font-variation-settings:normal;text-indent:0;text-align:end;text-decoration:none;text-decoration-line:none;text-decoration-style:solid;text-decoration-color:#000000;letter-spacing:normal;word-spacing:normal;text-transform:none;writing-mode:lr-tb;direction:ltr;text-orientation:mixed;dominant-baseline:auto;baseline-shift:baseline;text-anchor:end;white-space:normal;shape-padding:0;shape-margin:0;inline-size:0;clip-rule:nonzero;display:inline;overflow:visible;visibility:visible;isolation:auto;mix-blend-mode:normal;color-interpolation:sRGB;color-interpolation-filters:linearRGB;solid-color:#000000;solid-opacity:1;vector-effect:none;fill:#92d050;fill-opacity:1;fill-rule:nonzero;stroke:none;stroke-width:1;stroke-linecap:round;stroke-linejoin:miter;stroke-miterlimit:4;stroke-dasharray:none;stroke-dashoffset:0;stroke-opacity:1;color-rendering:auto;image-rendering:auto;shape-rendering:auto;text-rendering:auto;enable-background:accumulate;stop-color:#000000"
       d="m -114.9806,234.89874 c -40.4303,0.1918 -68.4418,3.1649 -93.0863,7.0413 0.123,14.2833 1.0619,26.5084 7.4451,37.0822 7.114,11.7842 21.3688,17.6577 39.1857,17.6577 17.8169,0 32.0731,-5.8735 39.1867,-17.6577 a 11.0755,11.0755 0 0 0 -3.7573,-15.2075 11.0755,11.0755 0 0 0 -15.2048,3.7579 c -2.7319,4.5254 -6.2665,6.9551 -20.2246,6.9551 -13.9581,0 -17.4912,-2.4297 -20.2231,-6.9551 -2.0209,-3.3475 -3.383,-10.0034 -3.961,-19.5255 h 58.1898 c 3.8322,0 7.6228,-2.4429 9.2454,-4.445 1.6225,-2.0023 2.0898,-3.529 2.4531,-4.7537 0.47,-1.5846 0.6571,-2.8255 0.7513,-3.9497 z"
       id="path1651-7" />
    <path
       style="color:#000000;font-style:normal;font-variant:normal;font-weight:normal;font-stretch:normal;font-size:50.8px;line-height:1.25;font-family:sans-serif;font-variant-ligatures:normal;font-variant-position:normal;font-variant-caps:normal;font-variant-numeric:normal;font-variant-alternates:normal;font-variant-east-asian:normal;font-feature-settings:normal;font-variation-settings:normal;text-indent:0;text-align:end;text-decoration:none;text-decoration-line:none;text-decoration-style:solid;text-decoration-color:#000000;letter-spacing:normal;word-spacing:normal;text-transform:none;writing-mode:lr-tb;direction:ltr;text-orientation:mixed;dominant-baseline:auto;baseline-shift:baseline;text-anchor:end;white-space:normal;shape-padding:0;shape-margin:0;inline-size:0;clip-rule:nonzero;display:inline;overflow:visible;visibility:visible;isolation:auto;mix-blend-mode:normal;color-interpolation:sRGB;color-interpolation-filters:linearRGB;solid-color:#000000;solid-opacity:1;vector-effect:none;fill:#92d050;fill-opacity:1;fill-rule:nonzero;stroke:none;stroke-width:1;stroke-linecap:round;stroke-linejoin:miter;stroke-miterlimit:4;stroke-dasharray:none;stroke-dashoffset:0;stroke-opacity:1;color-rendering:auto;image-rendering:auto;shape-rendering:auto;text-rendering:auto;enable-background:accumulate;stop-color:#000000"
       d="m -59.581897,236.61904 c -6.9365,-0.5072 -14.2929,-0.9173 -22.1604,-1.2113 v 50.2031 a 11.075562,11.075562 0 0 0 11.08,11.0805 11.075562,11.075562 0 0 0 11.0804,-11.0805 z"
       id="path1647-9" />
    <path
       style="color:#000000;font-style:normal;font-variant:normal;font-weight:normal;font-stretch:normal;font-size:50.8px;line-height:1.25;font-family:sans-serif;font-variant-ligatures:normal;font-variant-position:normal;font-variant-caps:normal;font-variant-numeric:normal;font-variant-alternates:normal;font-variant-east-asian:normal;font-feature-settings:normal;font-variation-settings:normal;text-indent:0;text-align:end;text-decoration:none;text-decoration-line:none;text-decoration-style:solid;text-decoration-color:#000000;letter-spacing:normal;word-spacing:normal;text-transform:none;writing-mode:lr-tb;direction:ltr;text-orientation:mixed;dominant-baseline:auto;baseline-shift:baseline;text-anchor:end;white-space:normal;shape-padding:0;shape-margin:0;inline-size:0;clip-rule:nonzero;display:inline;overflow:visible;visibility:visible;isolation:auto;mix-blend-mode:normal;color-interpolation:sRGB;color-interpolation-filters:linearRGB;solid-color:#000000;solid-opacity:1;vector-effect:none;fill:#92d050;fill-opacity:1;fill-rule:nonzero;stroke:none;stroke-width:1;stroke-linecap:round;stroke-linejoin:miter;stroke-miterlimit:4;stroke-dasharray:none;stroke-dashoffset:0;stroke-opacity:1;color-rendering:auto;image-rendering:auto;shape-rendering:auto;text-rendering:auto;enable-background:accumulate;stop-color:#000000"
       d="m 27.058803,249.10764 c -3.2649,-0.5893 -6.5088,-1.1814 -9.7312,-1.773 -4.1404,-0.7601 -8.2643,-1.5174 -12.4188,-2.2619 v 20.0194 c 0,12.7217 6.6861,23.0137 14.7515,27.3415 8.0654,4.3278 15.9387,4.2463 20.7445,4.2463 6.4019,0 12.835,-1.4306 18.4299,-2.7265 5.5948,-1.2957 10.0624,-2.5977 10.0624,-2.5977 a 11.07555,11.07555 0 0 0 7.5391,-13.7303 11.07555,11.07555 0 0 0 -13.7304,-7.5393 c 0,0 -3.9209,1.1412 -8.8693,2.2873 -4.9485,1.1462 -11.213,2.1559 -13.4317,2.1559 -3.9854,0 -8.3228,-0.5702 -10.2697,-1.6148 -1.9468,-1.0448 -3.0763,-1.0078 -3.0763,-7.8224 z"
       id="path1645-7" />
    <path
       style="color:#000000;font-style:normal;font-variant:normal;font-weight:normal;font-stretch:normal;font-size:50.8px;line-height:1.25;font-family:sans-serif;font-variant-ligatures:normal;font-variant-position:normal;font-variant-caps:normal;font-variant-numeric:normal;font-variant-alternates:normal;font-variant-east-asian:normal;font-feature-settings:normal;font-variation-settings:normal;text-indent:0;text-align:end;text-decoration:none;text-decoration-line:none;text-decoration-style:solid;text-decoration-color:#000000;letter-spacing:normal;word-spacing:normal;text-transform:none;writing-mode:lr-tb;direction:ltr;text-orientation:mixed;dominant-baseline:auto;baseline-shift:baseline;text-anchor:end;white-space:normal;shape-padding:0;shape-margin:0;inline-size:0;clip-rule:nonzero;display:inline;overflow:visible;visibility:visible;isolation:auto;mix-blend-mode:normal;color-interpolation:sRGB;color-interpolation-filters:linearRGB;solid-color:#000000;solid-opacity:1;vector-effect:none;fill:#92d050;fill-opacity:1;fill-rule:nonzero;stroke:none;stroke-width:1;stroke-linecap:round;stroke-linejoin:miter;stroke-miterlimit:4;stroke-dasharray:none;stroke-dashoffset:0;stroke-opacity:1;color-rendering:auto;image-rendering:auto;shape-rendering:auto;text-rendering:auto;enable-background:accumulate;stop-color:#000000"
       d="m 182.7884,259.46234 c -7.199,0.3093 -14.7989,0.5217 -22.8643,0.6207 -0.6702,3.2933 -1.5226,5.8071 -2.5394,7.4914 -2.732,4.5254 -6.2645,6.9551 -20.2225,6.9551 -13.9581,0 -17.4926,-2.4297 -20.2246,-6.9551 -1.0882,-1.8026 -1.9875,-4.5567 -2.6769,-8.1984 -8.1215,-0.372 -15.731997,-0.8662 -22.920997,-1.4605 0.9016,7.6999 2.769,14.7045 6.6347,21.1079 7.113997,11.7841 21.370897,17.6562 39.187797,17.6562 17.8169,0 32.0733,-5.8721 39.1873,-17.6562 3.6053,-5.9721 5.4725,-12.4669 6.4389,-19.5611 z"
       id="path1641-3" />
    <path
       style="color:#000000;font-style:normal;font-variant:normal;font-weight:normal;font-stretch:normal;font-size:50.8px;line-height:1.25;font-family:sans-serif;font-variant-ligatures:normal;font-variant-position:normal;font-variant-caps:normal;font-variant-numeric:normal;font-variant-alternates:normal;font-variant-east-asian:normal;font-feature-settings:normal;font-variation-settings:normal;text-indent:0;text-align:end;text-decoration:none;text-decoration-line:none;text-decoration-style:solid;text-decoration-color:#000000;letter-spacing:normal;word-spacing:normal;text-transform:none;writing-mode:lr-tb;direction:ltr;text-orientation:mixed;dominant-baseline:auto;baseline-shift:baseline;text-anchor:end;white-space:normal;shape-padding:0;shape-margin:0;inline-size:0;clip-rule:nonzero;display:inline;overflow:visible;visibility:visible;isolation:auto;mix-blend-mode:normal;color-interpolation:sRGB;color-interpolation-filters:linearRGB;solid-color:#000000;solid-opacity:1;vector-effect:none;fill:#92d050;fill-opacity:1;fill-rule:nonzero;stroke:none;stroke-width:1;stroke-linecap:round;stroke-linejoin:miter;stroke-miterlimit:4;stroke-dasharray:none;stroke-dashoffset:0;stroke-opacity:1;color-rendering:auto;image-rendering:auto;shape-rendering:auto;text-rendering:auto;enable-background:accumulate;stop-color:#000000"
       d="m 354.9856,236.88864 c -8.1405,0.6466 -15.7172,1.4239 -22.8849,2.3016 -1.1223,9.6218 -2.5627,17.7593 -3.7476,20.4255 -3.544,7.974 -6.4244,11.5311 -8.3282,12.9456 -1.9039,1.4142 -3.6875,1.9666 -8.9007,1.9666 -5.2133,0 -6.9984,-0.5524 -8.9023,-1.9666 -1.9038,-1.4145 -4.7843,-4.9716 -8.3282,-12.9456 -0.9083,-2.0436 -1.9667,-7.3125 -2.9176,-13.9872 -3.1179,0.5649 -6.2289,1.1335 -9.3457,1.7058 -6.4285,1.1803 -12.9009,2.3672 -19.5807,3.5166 -0.7152,4.1391 -1.449,7.3012 -2.1038,8.7746 -3.5439,7.974 -6.4223,11.5314 -8.3261,12.9456 -1.9039,1.4142 -3.6891,1.9669 -8.9023,1.9669 -5.2133,0 -6.9985,-0.5527 -8.9023,-1.9669 -1.9038,-1.4142 -4.7842,-4.9716 -8.3282,-12.9456 -0.3249,-0.731 -0.6697,-1.8793 -1.0216,-3.3501 -7.0855,0.7966 -14.5688,1.5023 -22.5681,2.0857 0.8807,3.6581 1.9819,7.1062 3.3796,10.251 4.2704,9.6086 8.7161,16.7971 15.3593,21.7321 6.6431,4.935 14.6261,6.336 22.1113,6.336 7.4852,0 15.4682,-1.401 22.1113,-6.336 4.9752,-3.696 8.7165,-8.6577 12.0763,-14.9511 3.3597,6.2934 7.1006,11.2551 12.0757,14.9511 6.6431,4.935 14.6282,6.336 22.1134,6.336 7.4851,0 15.4661,-1.401 22.1092,-6.336 6.6432,-4.935 11.0914,-12.1235 15.3619,-21.7321 3.9313,-8.8456 5.5324,-20.0692 6.3903,-31.7235 z"
       id="path1639-9" />
    <path
       style="color:#000000;font-style:normal;font-variant:normal;font-weight:normal;font-stretch:normal;font-size:50.8px;line-height:1.25;font-family:sans-serif;font-variant-ligatures:normal;font-variant-position:normal;font-variant-caps:normal;font-variant-numeric:normal;font-variant-alternates:normal;font-variant-east-asian:normal;font-feature-settings:normal;font-variation-settings:normal;text-indent:0;text-align:end;text-decoration:none;text-decoration-line:none;text-decoration-style:solid;text-decoration-color:#000000;letter-spacing:normal;word-spacing:normal;text-transform:none;writing-mode:lr-tb;direction:ltr;text-orientation:mixed;dominant-baseline:auto;baseline-shift:baseline;text-anchor:end;white-space:normal;shape-padding:0;shape-margin:0;inline-size:0;clip-rule:nonzero;display:inline;overflow:visible;visibility:visible;isolation:auto;mix-blend-mode:normal;color-interpolation:sRGB;color-interpolation-filters:linearRGB;solid-color:#000000;solid-opacity:1;vector-effect:none;fill:#92d050;fill-opacity:1;fill-rule:nonzero;stroke:none;stroke-width:1;stroke-linecap:round;stroke-linejoin:miter;stroke-miterlimit:4;stroke-dasharray:none;stroke-dashoffset:0;stroke-opacity:1;color-rendering:auto;image-rendering:auto;shape-rendering:auto;text-rendering:auto;enable-background:accumulate;stop-color:#000000"
       d="m 392.2174,235.07064 c -7.8524,0.1672 -15.2131,0.4453 -22.1593,0.8184 0,0.3519 0,0.6982 0,1.0533 0,13.7337 0.782,25.0023 5.039,34.9901 4.2571,9.9877 13.0144,17.7556 24.0238,21.4254 32.1331,10.7111 61.078,-7.9121 61.078,-7.9121 a 11.07555,11.07555 0 0 0 3.6287,-15.2363 11.07555,11.07555 0 0 0 -15.2384,-3.6288 c 0,0 -21.8484,12.6349 -42.4625,5.7637 -6.573,-2.191 -8.5605,-4.1894 -10.6526,-9.0977 -2.0922,-4.9085 -3.2633,-13.6647 -3.2633,-26.3043 0,-0.6361 0.01,-1.2555 0.011,-1.8717 z"
       id="path1637-9" />
    <path
       style="color:#000000;font-style:normal;font-variant:normal;font-weight:normal;font-stretch:normal;font-size:50.8px;line-height:1.25;font-family:sans-serif;font-variant-ligatures:normal;font-variant-position:normal;font-variant-caps:normal;font-variant-numeric:normal;font-variant-alternates:normal;font-variant-east-asian:normal;font-feature-settings:normal;font-variation-settings:normal;text-indent:0;text-align:end;text-decoration:none;text-decoration-line:none;text-decoration-style:solid;text-decoration-color:#000000;letter-spacing:normal;word-spacing:normal;text-transform:none;writing-mode:lr-tb;direction:ltr;text-orientation:mixed;dominant-baseline:auto;baseline-shift:baseline;text-anchor:end;white-space:normal;shape-padding:0;shape-margin:0;inline-size:0;clip-rule:nonzero;display:inline;overflow:visible;visibility:visible;isolation:auto;mix-blend-mode:normal;color-interpolation:sRGB;color-interpolation-filters:linearRGB;solid-color:#000000;solid-opacity:1;vector-effect:none;fill:#92d050;fill-opacity:1;fill-rule:nonzero;stroke:none;stroke-width:1;stroke-linecap:round;stroke-linejoin:miter;stroke-miterlimit:4;stroke-dasharray:none;stroke-dashoffset:0;stroke-opacity:1;color-rendering:auto;image-rendering:auto;shape-rendering:auto;text-rendering:auto;enable-background:accumulate;stop-color:#000000"
       d="m 572.377,253.26524 c -7.8376,-1.1901 -15.2722,-2.4638 -22.5299,-3.7634 -0.6246,8.7587 -1.9558,14.8947 -3.8742,18.0726 -2.732,4.5254 -6.2665,6.9551 -20.2246,6.9551 -13.9581,0 -17.4911,-2.4297 -20.2231,-6.9551 -2.4846,-4.1159 -3.9861,-13.1895 -4.2385,-26.512 -7.0164,-1.0372 -14.3506,-1.9926 -22.1903,-2.8274 0.022,15.8946 0.5339,29.3087 7.4641,40.7884 7.114,11.7841 21.3709,17.6562 39.1878,17.6562 9.9869,0 18.8543,-1.8457 25.9731,-5.5427 a 11.07555,11.07555 0 0 0 9.5813,5.5194 11.07555,11.07555 0 0 0 11.0743,-11.0762 z"
       id="path1633-9" />
    <path
       style="color:#000000;font-style:normal;font-variant:normal;font-weight:normal;font-stretch:normal;font-size:50.8px;line-height:1.25;font-family:sans-serif;font-variant-ligatures:normal;font-variant-position:normal;font-variant-caps:normal;font-variant-numeric:normal;font-variant-alternates:normal;font-variant-east-asian:normal;font-feature-settings:normal;font-variation-settings:normal;text-indent:0;text-align:end;text-decoration:none;text-decoration-line:none;text-decoration-style:solid;text-decoration-color:#000000;letter-spacing:normal;word-spacing:normal;text-transform:none;writing-mode:lr-tb;direction:ltr;text-orientation:mixed;dominant-baseline:auto;baseline-shift:baseline;text-anchor:end;white-space:normal;shape-padding:0;shape-margin:0;inline-size:0;clip-rule:nonzero;display:inline;overflow:visible;visibility:visible;isolation:auto;mix-blend-mode:normal;color-interpolation:sRGB;color-interpolation-filters:linearRGB;solid-color:#000000;solid-opacity:1;vector-effect:none;fill:#92d050;fill-opacity:1;fill-rule:nonzero;stroke:none;stroke-width:1;stroke-linecap:round;stroke-linejoin:miter;stroke-miterlimit:4;stroke-dasharray:none;stroke-dashoffset:0;stroke-opacity:1;color-rendering:auto;image-rendering:auto;shape-rendering:auto;text-rendering:auto;enable-background:accumulate;stop-color:#000000"
       d="m 610.8289,257.82424 c -7.8403,-0.663 -15.182,-1.4425 -22.1506,-2.3063 v 9.5739 c 0,12.7217 6.6867,23.0137 14.7521,27.3415 8.0654,4.3278 15.9386,4.2463 20.7444,4.2463 6.4019,0 12.8345,-1.4306 18.4294,-2.7265 5.5948,-1.2957 10.0624,-2.5977 10.0624,-2.5977 a 11.07555,11.07555 0 0 0 7.5391,-13.7303 11.07555,11.07555 0 0 0 -13.7304,-7.5393 c 0,0 -3.9208,1.1412 -8.8692,2.2873 -4.9484,1.1462 -11.2125,2.1559 -13.4313,2.1559 -3.9854,0 -8.3227,-0.5702 -10.2696,-1.6148 -1.9468,-1.0448 -3.0763,-1.0078 -3.0763,-7.8224 z"
       id="path1631-1" />
    <path
       style="color:#000000;font-style:normal;font-variant:normal;font-weight:normal;font-stretch:normal;font-size:50.8px;line-height:1.25;font-family:sans-serif;font-variant-ligatures:normal;font-variant-position:normal;font-variant-caps:normal;font-variant-numeric:normal;font-variant-alternates:normal;font-variant-east-asian:normal;font-feature-settings:normal;font-variation-settings:normal;text-indent:0;text-align:end;text-decoration:none;text-decoration-line:none;text-decoration-style:solid;text-decoration-color:#000000;letter-spacing:normal;word-spacing:normal;text-transform:none;writing-mode:lr-tb;direction:ltr;text-orientation:mixed;dominant-baseline:auto;baseline-shift:baseline;text-anchor:end;white-space:normal;shape-padding:0;shape-margin:0;inline-size:0;clip-rule:nonzero;display:inline;overflow:visible;visibility:visible;isolation:auto;mix-blend-mode:normal;color-interpolation:sRGB;color-interpolation-filters:linearRGB;solid-color:#000000;solid-opacity:1;vector-effect:none;fill:#92d050;fill-opacity:1;fill-rule:nonzero;stroke:none;stroke-width:1;stroke-linecap:round;stroke-linejoin:miter;stroke-miterlimit:4;stroke-dasharray:none;stroke-dashoffset:0;stroke-opacity:1;color-rendering:auto;image-rendering:auto;shape-rendering:auto;text-rendering:auto;enable-background:accumulate;stop-color:#000000"
       d="m 695.8821,259.74354 c -7.1498,0.2305 -14.6917,0.3662 -22.6704,0.3948 0.7604,4.1513 1.8649,8.0621 3.4555,11.7941 4.2571,9.9877 13.0161,17.7556 24.0255,21.4254 32.133,10.7111 61.0784,-7.9121 61.0784,-7.9121 a 11.07555,11.07555 0 0 0 3.6266,-15.2363 11.07555,11.07555 0 0 0 -15.2362,-3.6288 c 0,0 -21.8511,12.6349 -42.4651,5.7637 -6.573,-2.191 -8.5578,-4.1894 -10.6501,-9.0977 -0.4278,-1.0038 -0.8154,-2.1772 -1.1642,-3.5031 z"
       id="path1629-5" />
    <path
       style="color:#000000;font-style:normal;font-variant:normal;font-weight:normal;font-stretch:normal;font-size:50.8px;line-height:1.25;font-family:sans-serif;font-variant-ligatures:normal;font-variant-position:normal;font-variant-caps:normal;font-variant-numeric:normal;font-variant-alternates:normal;font-variant-east-asian:normal;font-feature-settings:normal;font-variation-settings:normal;text-indent:0;text-align:end;text-decoration:none;text-decoration-line:none;text-decoration-style:solid;text-decoration-color:#000000;letter-spacing:normal;word-spacing:normal;text-transform:none;writing-mode:lr-tb;direction:ltr;text-orientation:mixed;dominant-baseline:auto;baseline-shift:baseline;text-anchor:end;white-space:normal;shape-padding:0;shape-margin:0;inline-size:0;clip-rule:nonzero;display:inline;overflow:visible;visibility:visible;isolation:auto;mix-blend-mode:normal;color-interpolation:sRGB;color-interpolation-filters:linearRGB;solid-color:#000000;solid-opacity:1;vector-effect:none;fill:#4d4d4d;fill-opacity:1;fill-rule:nonzero;stroke:none;stroke-width:1;stroke-linecap:round;stroke-linejoin:miter;stroke-miterlimit:4;stroke-dasharray:none;stroke-dashoffset:0;stroke-opacity:1;color-rendering:auto;image-rendering:auto;shape-rendering:auto;text-rendering:auto;enable-background:accumulate;stop-color:#000000"
       d="m 671.6345,237.99324 c 7.823,-0.013 15.1845,-0.1307 22.15,-0.3374 0,-0.2397 0,-0.4712 0,-0.7135 0,-12.64 1.1739,-21.3964 3.2659,-26.3049 2.0923,-4.9086 4.0771,-6.9067 10.6501,-9.0977 20.614,-6.8712 42.465,5.7634 42.465,5.7634 a 11.07555,11.07555 0 0 0 15.2363,-3.6287 11.07555,11.07555 0 0 0 -3.6266,-15.2361 c 0,0 -16.2823,-10.4764 -37.9791,-11.1953 -7.2322,-0.2397 -15.066,0.6051 -23.0994,3.283 -11.0093,3.6697 -19.7683,11.4379 -24.0254,21.4256 -4.257,9.9878 -5.0369,21.2569 -5.0369,34.9907 0,0.3542 0,0.6998 0,1.0509 z"
       id="path1625-8" />
    <path
       style="color:#000000;font-style:normal;font-variant:normal;font-weight:normal;font-stretch:normal;font-size:50.8px;line-height:1.25;font-family:sans-serif;font-variant-ligatures:normal;font-variant-position:normal;font-variant-caps:normal;font-variant-numeric:normal;font-variant-alternates:normal;font-variant-east-asian:normal;font-feature-settings:normal;font-variation-settings:normal;text-indent:0;text-align:end;text-decoration:none;text-decoration-line:none;text-decoration-style:solid;text-decoration-color:#000000;letter-spacing:normal;word-spacing:normal;text-transform:none;writing-mode:lr-tb;direction:ltr;text-orientation:mixed;dominant-baseline:auto;baseline-shift:baseline;text-anchor:end;white-space:normal;shape-padding:0;shape-margin:0;inline-size:0;clip-rule:nonzero;display:inline;overflow:visible;visibility:visible;isolation:auto;mix-blend-mode:normal;color-interpolation:sRGB;color-interpolation-filters:linearRGB;solid-color:#000000;solid-opacity:1;vector-effect:none;fill:#4d4d4d;fill-opacity:1;fill-rule:nonzero;stroke:none;stroke-width:1;stroke-linecap:round;stroke-linejoin:miter;stroke-miterlimit:4;stroke-dasharray:none;stroke-dashoffset:0;stroke-opacity:1;color-rendering:auto;image-rendering:auto;shape-rendering:auto;text-rendering:auto;enable-background:accumulate;stop-color:#000000"
       d="m 588.6783,233.22204 c 6.9618,0.9017 14.2958,1.7121 22.1506,2.4 v -77.9772 a 11.07555,11.07555 0 0 0 -11.0743,-11.0765 11.07555,11.07555 0 0 0 -11.0763,11.0765 z"
       id="path1621-0" />
    <path
       style="color:#000000;font-style:normal;font-variant:normal;font-weight:normal;font-stretch:normal;font-size:50.8px;line-height:1.25;font-family:sans-serif;font-variant-ligatures:normal;font-variant-position:normal;font-variant-caps:normal;font-variant-numeric:normal;font-variant-alternates:normal;font-variant-east-asian:normal;font-feature-settings:normal;font-variation-settings:normal;text-indent:0;text-align:end;text-decoration:none;text-decoration-line:none;text-decoration-style:solid;text-decoration-color:#000000;letter-spacing:normal;word-spacing:normal;text-transform:none;writing-mode:lr-tb;direction:ltr;text-orientation:mixed;dominant-baseline:auto;baseline-shift:baseline;text-anchor:end;white-space:normal;shape-padding:0;shape-margin:0;inline-size:0;clip-rule:nonzero;display:inline;overflow:visible;visibility:visible;isolation:auto;mix-blend-mode:normal;color-interpolation:sRGB;color-interpolation-filters:linearRGB;solid-color:#000000;solid-opacity:1;vector-effect:none;fill:#4d4d4d;fill-opacity:1;fill-rule:nonzero;stroke:none;stroke-width:1;stroke-linecap:round;stroke-linejoin:miter;stroke-miterlimit:4;stroke-dasharray:none;stroke-dashoffset:0;stroke-opacity:1;color-rendering:auto;image-rendering:auto;shape-rendering:auto;text-rendering:auto;enable-background:accumulate;stop-color:#000000"
       d="m 479.9206,216.08254 c 7.8686,0.8163 15.2457,1.7457 22.271,2.7517 0.7276,-5.8042 1.8556,-10.0163 3.3336,-12.4648 2.732,-4.5257 6.2651,-6.9551 20.2231,-6.9551 13.958,0 17.4926,2.4294 20.2246,6.9551 2.1014,3.4811 3.4983,10.5114 4.0328,20.6536 7.3188,1.3306 14.6848,2.6321 22.3713,3.8468 v -42.5299 a 11.07555,11.07555 0 0 0 -11.0743,-11.0763 11.07555,11.07555 0 0 0 -9.5927,5.5388 c -7.1169,-3.6938 -15.98,-5.5388 -25.9617,-5.5388 -17.8169,0 -32.0738,5.8741 -39.1878,17.6583 -3.8745,6.4183 -5.7412,13.4401 -6.6399,21.1606 z"
       id="path1617-0" />
    <path
       style="color:#000000;font-style:normal;font-variant:normal;font-weight:normal;font-stretch:normal;font-size:50.8px;line-height:1.25;font-family:sans-serif;font-variant-ligatures:normal;font-variant-position:normal;font-variant-caps:normal;font-variant-numeric:normal;font-variant-alternates:normal;font-variant-east-asian:normal;font-feature-settings:normal;font-variation-settings:normal;text-indent:0;text-align:end;text-decoration:none;text-decoration-line:none;text-decoration-style:solid;text-decoration-color:#000000;letter-spacing:normal;word-spacing:normal;text-transform:none;writing-mode:lr-tb;direction:ltr;text-orientation:mixed;dominant-baseline:auto;baseline-shift:baseline;text-anchor:end;white-space:normal;shape-padding:0;shape-margin:0;inline-size:0;clip-rule:nonzero;display:inline;overflow:visible;visibility:visible;isolation:auto;mix-blend-mode:normal;color-interpolation:sRGB;color-interpolation-filters:linearRGB;solid-color:#000000;solid-opacity:1;vector-effect:none;fill:#4d4d4d;fill-opacity:1;fill-rule:nonzero;stroke:none;stroke-width:1;stroke-linecap:round;stroke-linejoin:miter;stroke-miterlimit:4;stroke-dasharray:none;stroke-dashoffset:0;stroke-opacity:1;color-rendering:auto;image-rendering:auto;shape-rendering:auto;text-rendering:auto;enable-background:accumulate;stop-color:#000000"
       d="m 371.6559,213.64284 c 7.2341,-0.3628 14.885,-0.625 23.0105,-0.7721 0.2507,-0.8141 0.5178,-1.5629 0.8035,-2.2333 2.0921,-4.9086 4.0796,-6.9067 10.6526,-9.0977 20.6141,-6.8712 42.4625,5.7634 42.4625,5.7634 a 11.07555,11.07555 0 0 0 15.2384,-3.6287 11.07555,11.07555 0 0 0 -3.6287,-15.2361 c 0,0 -16.2818,-10.4764 -37.9786,-11.1953 -7.2323,-0.2397 -15.0662,0.6051 -23.0994,3.283 -11.0095,3.6697 -19.7667,11.4379 -24.0238,21.4256 -1.5774,3.7008 -2.6769,7.5782 -3.437,11.6912 z"
       id="path1613-6" />
    <path
       style="color:#000000;font-style:normal;font-variant:normal;font-weight:normal;font-stretch:normal;font-size:50.8px;line-height:1.25;font-family:sans-serif;font-variant-ligatures:normal;font-variant-position:normal;font-variant-caps:normal;font-variant-numeric:normal;font-variant-alternates:normal;font-variant-east-asian:normal;font-feature-settings:normal;font-variation-settings:normal;text-indent:0;text-align:end;text-decoration:none;text-decoration-line:none;text-decoration-style:solid;text-decoration-color:#000000;letter-spacing:normal;word-spacing:normal;text-transform:none;writing-mode:lr-tb;direction:ltr;text-orientation:mixed;dominant-baseline:auto;baseline-shift:baseline;text-anchor:end;white-space:normal;shape-padding:0;shape-margin:0;inline-size:0;clip-rule:nonzero;display:inline;overflow:visible;visibility:visible;isolation:auto;mix-blend-mode:normal;color-interpolation:sRGB;color-interpolation-filters:linearRGB;solid-color:#000000;solid-opacity:1;vector-effect:none;fill:#4d4d4d;fill-opacity:1;fill-rule:nonzero;stroke:none;stroke-width:1;stroke-linecap:round;stroke-linejoin:miter;stroke-miterlimit:4;stroke-dasharray:none;stroke-dashoffset:0;stroke-opacity:1;color-rendering:auto;image-rendering:auto;shape-rendering:auto;text-rendering:auto;enable-background:accumulate;stop-color:#000000"
       d="m 333.8468,216.71204 c 6.9874,-0.7978 14.3684,-1.5055 22.2421,-2.0966 0.4966,-14.8855 0.2971,-26.8764 0.2971,-26.8764 a 11.07555,11.07555 0 0 0 -11.2598,-10.8886 11.07555,11.07555 0 0 0 -10.8887,11.2575 c 0,0 0.2122,13.0966 -0.3907,28.6041 z"
       id="path1609-3" />
    <path
       style="color:#000000;font-style:normal;font-variant:normal;font-weight:normal;font-stretch:normal;font-size:50.8px;line-height:1.25;font-family:sans-serif;font-variant-ligatures:normal;font-variant-position:normal;font-variant-caps:normal;font-variant-numeric:normal;font-variant-alternates:normal;font-variant-east-asian:normal;font-feature-settings:normal;font-variation-settings:normal;text-indent:0;text-align:end;text-decoration:none;text-decoration-line:none;text-decoration-style:solid;text-decoration-color:#000000;letter-spacing:normal;word-spacing:normal;text-transform:none;writing-mode:lr-tb;direction:ltr;text-orientation:mixed;dominant-baseline:auto;baseline-shift:baseline;text-anchor:end;white-space:normal;shape-padding:0;shape-margin:0;inline-size:0;clip-rule:nonzero;display:inline;overflow:visible;visibility:visible;isolation:auto;mix-blend-mode:normal;color-interpolation:sRGB;color-interpolation-filters:linearRGB;solid-color:#000000;solid-opacity:1;vector-effect:none;fill:#4d4d4d;fill-opacity:1;fill-rule:nonzero;stroke:none;stroke-width:1;stroke-linecap:round;stroke-linejoin:miter;stroke-miterlimit:4;stroke-dasharray:none;stroke-dashoffset:0;stroke-opacity:1;color-rendering:auto;image-rendering:auto;shape-rendering:auto;text-rendering:auto;enable-background:accumulate;stop-color:#000000"
       d="m 264.7988,227.88374 c 4.2948,-0.7683 8.5539,-1.5512 12.8318,-2.3368 3.6752,-0.6747 7.3736,-1.3507 11.1079,-2.0214 -0.096,-1.5436 -0.1838,-3.0787 -0.2491,-4.5818 -0.3359,-7.7258 -0.4391,-14.7277 -0.4785,-20.2634 0.044,-6.3354 0,-10.4955 0,-10.6934 a 11.07555,11.07555 0 0 0 0,-0.2479 11.07555,11.07555 0 0 0 -0.01,-0.2558 11.07555,11.07555 0 0 0 0,-0.024 11.07555,11.07555 0 0 0 -0.01,-0.1897 11.07555,11.07555 0 0 0 -0.01,-0.09 11.07555,11.07555 0 0 0 -0.014,-0.1897 11.07555,11.07555 0 0 0 -0.01,-0.09 11.07555,11.07555 0 0 0 -0.019,-0.1892 11.07555,11.07555 0 0 0 0,-0.024 11.07555,11.07555 0 0 0 -0.033,-0.2537 11.07555,11.07555 0 0 0 -0.039,-0.2696 11.07555,11.07555 0 0 0 0,-0.011 11.07555,11.07555 0 0 0 -0.031,-0.1744 11.07555,11.07555 0 0 0 -0.027,-0.1579 11.07555,11.07555 0 0 0 -0.01,-0.027 11.07555,11.07555 0 0 0 -0.039,-0.1855 11.07555,11.07555 0 0 0 -0.045,-0.2051 11.07555,11.07555 0 0 0 -0.016,-0.068 11.07555,11.07555 0 0 0 -0.022,-0.086 11.07555,11.07555 0 0 0 -0.049,-0.1858 11.07555,11.07555 0 0 0 -0.023,-0.086 11.07555,11.07555 0 0 0 -0.051,-0.1839 11.07555,11.07555 0 0 0 -0.012,-0.035 11.07555,11.07555 0 0 0 -0.066,-0.2149 11.07555,11.07555 0 0 0 -0.01,-0.019 11.07555,11.07555 0 0 0 -0.027,-0.084 11.07555,11.07555 0 0 0 -0.01,-0.029 11.07555,11.07555 0 0 0 -0.082,-0.236 11.07555,11.07555 0 0 0 -0.098,-0.2619 11.07555,11.07555 0 0 0 -0.07,-0.1773 11.07555,11.07555 0 0 0 -0.01,-0.018 11.07555,11.07555 0 0 0 -0.1013,-0.2381 11.07555,11.07555 0 0 0 -0.1095,-0.2424 11.07555,11.07555 0 0 0 -0.01,-0.013 11.07555,11.07555 0 0 0 -0.037,-0.08 11.07555,11.07555 0 0 0 -0.084,-0.1714 11.07555,11.07555 0 0 0 -0.041,-0.08 11.07555,11.07555 0 0 0 -0.088,-0.168 11.07555,11.07555 0 0 0 -0.1349,-0.2463 11.07555,11.07555 0 0 0 -0.1406,-0.2419 11.07555,11.07555 0 0 0 -0.1349,-0.2185 11.07555,11.07555 0 0 0 -0.012,-0.021 11.07555,11.07555 0 0 0 -0.047,-0.074 11.07555,11.07555 0 0 0 -0.1054,-0.1601 11.07555,11.07555 0 0 0 -0.051,-0.075 11.07555,11.07555 0 0 0 -0.01,-0.013 11.07555,11.07555 0 0 0 -0.1524,-0.2164 11.07555,11.07555 0 0 0 -0.1659,-0.2249 11.07555,11.07555 0 0 0 -0.1643,-0.2128 11.07555,11.07555 0 0 0 -0.01,-0.01 11.07555,11.07555 0 0 0 -0.02,-0.021 11.07555,11.07555 0 0 0 -0.1581,-0.1934 11.07555,11.07555 0 0 0 -0.1639,-0.1916 11.07555,11.07555 0 0 0 -0.018,-0.021 11.07555,11.07555 0 0 0 -0.1271,-0.1405 11.07555,11.07555 0 0 0 -0.06,-0.066 11.07555,11.07555 0 0 0 -0.1307,-0.1384 11.07555,11.07555 0 0 0 -0.062,-0.064 11.07555,11.07555 0 0 0 -0.1349,-0.1349 11.07555,11.07555 0 0 0 -0.064,-0.062 11.07555,11.07555 0 0 0 -0.029,-0.027 11.07555,11.07555 0 0 0 -0.1736,-0.1643 11.07555,11.07555 0 0 0 -0.1406,-0.1289 11.07555,11.07555 0 0 0 -0.066,-0.059 11.07555,11.07555 0 0 0 -0.1447,-0.1252 11.07555,11.07555 0 0 0 -0.068,-0.057 11.07555,11.07555 0 0 0 -0.1489,-0.1209 11.07555,11.07555 0 0 0 -0.1421,-0.113 11.07555,11.07555 0 0 0 -0.1488,-0.1132 11.07555,11.07555 0 0 0 -0.1524,-0.1138 11.07555,11.07555 0 0 0 -0.072,-0.053 11.07555,11.07555 0 0 0 -0.156,-0.1096 11.07555,11.07555 0 0 0 -0.074,-0.051 11.07555,11.07555 0 0 0 -0.1582,-0.1032 11.07555,11.07555 0 0 0 -0.076,-0.049 11.07555,11.07555 0 0 0 -0.1618,-0.1013 11.07555,11.07555 0 0 0 -0.076,-0.047 11.07555,11.07555 0 0 0 -0.064,-0.037 11.07555,11.07555 0 0 0 -0.1757,-0.1034 11.07555,11.07555 0 0 0 -0.1664,-0.094 11.07555,11.07555 0 0 0 -0.08,-0.043 11.07555,11.07555 0 0 0 -0.168,-0.088 11.07555,11.07555 0 0 0 -0.08,-0.041 11.07555,11.07555 0 0 0 -0.17,-0.084 11.07555,11.07555 0 0 0 -0.016,-0.011 11.07555,11.07555 0 0 0 -0.1974,-0.092 11.07555,11.07555 0 0 0 -0.041,-0.019 11.07555,11.07555 0 0 0 -0.02,-0.011 11.07555,11.07555 0 0 0 -0.2362,-0.1032 11.07555,11.07555 0 0 0 -0.2599,-0.1056 11.07555,11.07555 0 0 0 -0.2615,-0.1002 11.07555,11.07555 0 0 0 -0.1778,-0.062 11.07555,11.07555 0 0 0 -0.086,-0.031 11.07555,11.07555 0 0 0 -0.084,-0.027 11.07555,11.07555 0 0 0 -0.1819,-0.057 11.07555,11.07555 0 0 0 -0.2109,-0.062 11.07555,11.07555 0 0 0 -0.059,-0.018 11.07555,11.07555 0 0 0 -0.086,-0.024 11.07555,11.07555 0 0 0 -0.043,-0.013 11.07555,11.07555 0 0 0 -0.1953,-0.051 11.07555,11.07555 0 0 0 -0.032,-0.011 11.07555,11.07555 0 0 0 -0.1861,-0.043 11.07555,11.07555 0 0 0 -0.086,-0.021 11.07555,11.07555 0 0 0 -0.1875,-0.039 11.07555,11.07555 0 0 0 -0.088,-0.016 11.07555,11.07555 0 0 0 -0.053,-0.01 11.07555,11.07555 0 0 0 -0.2227,-0.039 11.07555,11.07555 0 0 0 -0.1871,-0.029 11.07555,11.07555 0 0 0 -0.1783,-0.026 11.07555,11.07555 0 0 0 -0.1617,-0.021 11.07555,11.07555 0 0 0 -0.023,0 11.07555,11.07555 0 0 0 -0.1892,-0.018 11.07555,11.07555 0 0 0 -0.2501,-0.021 11.07555,11.07555 0 0 0 -0.1483,-0.011 11.07555,11.07555 0 0 0 -0.2129,-0.013 11.07555,11.07555 0 0 0 -0.037,0 11.07555,11.07555 0 0 0 -0.055,0 11.07555,11.07555 0 0 0 -0.1819,0 11.07555,11.07555 0 0 0 -0.043,0 11.07555,11.07555 0 0 0 -0.3261,0 11.07555,11.07555 0 0 0 -0.2599,0.011 11.07555,11.07555 0 0 0 -0.02,0 11.07555,11.07555 0 0 0 -0.061,0 11.07555,11.07555 0 0 0 -0.1912,0.011 11.07555,11.07555 0 0 0 -0.086,0.01 11.07555,11.07555 0 0 0 -0.1799,0.013 11.07555,11.07555 0 0 0 -0.1757,0.018 11.07555,11.07555 0 0 0 -0.07,0.011 11.07555,11.07555 0 0 0 -0.2635,0.033 11.07555,11.07555 0 0 0 -0.2754,0.041 11.07555,11.07555 0 0 0 -0.1639,0.027 11.07555,11.07555 0 0 0 -0.1896,0.035 11.07555,11.07555 0 0 0 -0.01,0 11.07555,11.07555 0 0 0 -0.1876,0.039 11.07555,11.07555 0 0 0 -0.2051,0.045 11.07555,11.07555 0 0 0 -0.1189,0.029 11.07555,11.07555 0 0 0 -0.1426,0.037 11.07555,11.07555 0 0 0 -0.139,0.037 11.07555,11.07555 0 0 0 -0.039,0.011 11.07555,11.07555 0 0 0 -0.2542,0.074 11.07555,11.07555 0 0 0 -0.2031,0.064 11.07555,11.07555 0 0 0 -0.1266,0.041 11.07555,11.07555 0 0 0 -0.2016,0.07 11.07555,11.07555 0 0 0 -0.2537,0.093 11.07555,11.07555 0 0 0 -0.098,0.039 11.07555,11.07555 0 0 0 -0.1,0.041 11.07555,11.07555 0 0 0 -0.246,0.1037 11.07555,11.07555 0 0 0 -0.2424,0.1093 11.07555,11.07555 0 0 0 -0.022,0.011 11.07555,11.07555 0 0 0 -0.1426,0.068 11.07555,11.07555 0 0 0 -0.1794,0.09 11.07555,11.07555 0 0 0 -0.248,0.1307 11.07555,11.07555 0 0 0 -0.1995,0.1116 11.07555,11.07555 0 0 0 -0.201,0.1154 11.07555,11.07555 0 0 0 -0.014,0.011 11.07555,11.07555 0 0 0 -0.1602,0.1002 11.07555,11.07555 0 0 0 -0.074,0.045 11.07555,11.07555 0 0 0 -0.074,0.048 11.07555,11.07555 0 0 0 -0.2325,0.1545 11.07555,11.07555 0 0 0 -0.2305,0.1604 11.07555,11.07555 0 0 0 -0.2248,0.1659 11.07555,11.07555 0 0 0 -0.2206,0.172 11.07555,11.07555 0 0 0 -0.2166,0.1778 11.07555,11.07555 0 0 0 -0.1524,0.1307 11.07555,11.07555 0 0 0 -0.1778,0.1582 11.07555,11.07555 0 0 0 -0.035,0.029 11.07555,11.07555 0 0 0 -0.168,0.1604 11.07555,11.07555 0 0 0 -0.051,0.047 11.07555,11.07555 0 0 0 -0.062,0.062 11.07555,11.07555 0 0 0 -0.1716,0.1741 11.07555,11.07555 0 0 0 -0.1933,0.2032 11.07555,11.07555 0 0 0 -0.1679,0.1833 11.07555,11.07555 0 0 0 -0.06,0.07 11.07555,11.07555 0 0 0 -0.1266,0.1487 11.07555,11.07555 0 0 0 -0.07,0.084 11.07555,11.07555 0 0 0 -0.09,0.1114 11.07555,11.07555 0 0 0 -0.086,0.1093 11.07555,11.07555 0 0 0 -0.096,0.1249 11.07555,11.07555 0 0 0 -0.053,0.07 11.07555,11.07555 0 0 0 -0.1328,0.1796 11.07555,11.07555 0 0 0 -0.01,0.011 11.07555,11.07555 0 0 0 -0.1545,0.2225 11.07555,11.07555 0 0 0 -0.1054,0.1619 11.07555,11.07555 0 0 0 -0.123,0.1916 11.07555,11.07555 0 0 0 -0.039,0.062 11.07555,11.07555 0 0 0 -0.1312,0.2206 11.07555,11.07555 0 0 0 -0.074,0.1286 11.07555,11.07555 0 0 0 -0.1054,0.1937 11.07555,11.07555 0 0 0 -0.1111,0.213 11.07555,11.07555 0 0 0 -0.019,0.035 11.07555,11.07555 0 0 0 -0.092,0.1855 11.07555,11.07555 0 0 0 -0.066,0.1426 11.07555,11.07555 0 0 0 -0.08,0.1778 11.07555,11.07555 0 0 0 -0.084,0.1919 11.07555,11.07555 0 0 0 -0.098,0.2418 11.07555,11.07555 0 0 0 -0.074,0.1952 11.07555,11.07555 0 0 0 -0.053,0.1469 11.07555,11.07555 0 0 0 -0.062,0.1796 11.07555,11.07555 0 0 0 -0.068,0.2088 11.07555,11.07555 0 0 0 -0.018,0.057 11.07555,11.07555 0 0 0 -0.025,0.086 11.07555,11.07555 0 0 0 -0.072,0.2516 11.07555,11.07555 0 0 0 -0.018,0.061 11.07555,11.07555 0 0 0 -0.051,0.1952 11.07555,11.07555 0 0 0 -0.039,0.1723 11.07555,11.07555 0 0 0 -0.016,0.062 11.07555,11.07555 0 0 0 -0.043,0.199 11.07555,11.07555 0 0 0 -0.016,0.082 11.07555,11.07555 0 0 0 -0.047,0.2517 11.07555,11.07555 0 0 0 -0.045,0.2696 11.07555,11.07555 0 0 0 0,0.011 11.07555,11.07555 0 0 0 -0.037,0.2757 11.07555,11.07555 0 0 0 -0.023,0.2106 11.07555,11.07555 0 0 0 -0.014,0.137 11.07555,11.07555 0 0 0 -0.01,0.059 11.07555,11.07555 0 0 0 -0.015,0.2008 11.07555,11.07555 0 0 0 -0.01,0.1583 11.07555,11.07555 0 0 0 -0.01,0.1053 11.07555,11.07555 0 0 0 -0.01,0.1645 11.07555,11.07555 0 0 0 0,0.08 11.07555,11.07555 0 0 0 0,0.047 v 0.043 c 0,0.035 -0.046,4.4135 0,10.8635 -0.039,5.5391 -0.14,12.559 -0.4765,20.2986 -0.1264,2.908 -0.3176,5.9192 -0.5534,8.9299 z"
       id="path1605-6" />
    <path
       style="color:#000000;font-style:normal;font-variant:normal;font-weight:normal;font-stretch:normal;font-size:50.8px;line-height:1.25;font-family:sans-serif;font-variant-ligatures:normal;font-variant-position:normal;font-variant-caps:normal;font-variant-numeric:normal;font-variant-alternates:normal;font-variant-east-asian:normal;font-feature-settings:normal;font-variation-settings:normal;text-indent:0;text-align:end;text-decoration:none;text-decoration-line:none;text-decoration-style:solid;text-decoration-color:#000000;letter-spacing:normal;word-spacing:normal;text-transform:none;writing-mode:lr-tb;direction:ltr;text-orientation:mixed;dominant-baseline:auto;baseline-shift:baseline;text-anchor:end;white-space:normal;shape-padding:0;shape-margin:0;inline-size:0;clip-rule:nonzero;display:inline;overflow:visible;visibility:visible;isolation:auto;mix-blend-mode:normal;color-interpolation:sRGB;color-interpolation-filters:linearRGB;solid-color:#000000;solid-opacity:1;vector-effect:none;fill:#4d4d4d;fill-opacity:1;fill-rule:nonzero;stroke:none;stroke-width:1;stroke-linecap:round;stroke-linejoin:miter;stroke-miterlimit:4;stroke-dasharray:none;stroke-dashoffset:0;stroke-opacity:1;color-rendering:auto;image-rendering:auto;shape-rendering:auto;text-rendering:auto;enable-background:accumulate;stop-color:#000000"
       d="m 198.8468,236.40124 c 7.9567,-0.5559 15.3601,-1.2398 22.3687,-2.0185 -0.5106,-5.0985 -0.9148,-10.4148 -1.1328,-15.4289 -0.7158,-16.4648 -0.4785,-30.8359 -0.4785,-30.8359 a 11.07555,11.07555 0 0 0 -10.8903,-11.2577 11.07555,11.07555 0 0 0 -0.2796,0 l 0.03,-0.011 a 11.07555,11.07555 0 0 0 -10.9787,10.8907 c 0,0 -0.2532,14.9329 0.4961,32.1676 0.2372,5.4538 0.4718,11.0188 0.8651,16.4946 z"
       id="path1601-9" />
    <path
       style="color:#000000;font-style:normal;font-variant:normal;font-weight:normal;font-stretch:normal;font-size:50.8px;line-height:1.25;font-family:sans-serif;font-variant-ligatures:normal;font-variant-position:normal;font-variant-caps:normal;font-variant-numeric:normal;font-variant-alternates:normal;font-variant-east-asian:normal;font-feature-settings:normal;font-variation-settings:normal;text-indent:0;text-align:end;text-decoration:none;text-decoration-line:none;text-decoration-style:solid;text-decoration-color:#000000;letter-spacing:normal;word-spacing:normal;text-transform:none;writing-mode:lr-tb;direction:ltr;text-orientation:mixed;dominant-baseline:auto;baseline-shift:baseline;text-anchor:end;white-space:normal;shape-padding:0;shape-margin:0;inline-size:0;clip-rule:nonzero;display:inline;overflow:visible;visibility:visible;isolation:auto;mix-blend-mode:normal;color-interpolation:sRGB;color-interpolation-filters:linearRGB;solid-color:#000000;solid-opacity:1;vector-effect:none;fill:#4d4d4d;fill-opacity:1;fill-rule:nonzero;stroke:none;stroke-width:1;stroke-linecap:round;stroke-linejoin:miter;stroke-miterlimit:4;stroke-dasharray:none;stroke-dashoffset:0;stroke-opacity:1;color-rendering:auto;image-rendering:auto;shape-rendering:auto;text-rendering:auto;enable-background:accumulate;stop-color:#000000"
       d="m 90.508203,235.64714 c 6.9332,0.6035 14.278997,1.1105 22.151097,1.497 -1e-4,-0.058 0,-0.1129 0,-0.1714 0,-15.5747 1.5473,-26.0776 4.2793,-30.6033 2.732,-4.5254 6.2665,-6.9551 20.2246,-6.9551 13.958,0 17.4906,2.4294 20.2226,6.9551 2.732,4.5257 4.2814,15.0286 4.2814,30.6033 0,0.3185 0,0.622 -0.01,0.9364 7.844,-0.113 15.2024,-0.3353 22.1552,-0.6501 1e-4,-0.096 0,-0.19 0,-0.2863 0,-16.4518 -0.3527,-30.2665 -7.4667,-42.0508 -7.114,-11.7842 -21.3704,-17.6583 -39.1873,-17.6583 -17.8169,0 -32.0738,5.8741 -39.187697,17.6583 -6.9211,11.4647 -7.443,24.8584 -7.4663,40.7252 z"
       id="path1597-7" />
    <path
       style="color:#000000;font-style:normal;font-variant:normal;font-weight:normal;font-stretch:normal;font-size:50.8px;line-height:1.25;font-family:sans-serif;font-variant-ligatures:normal;font-variant-position:normal;font-variant-caps:normal;font-variant-numeric:normal;font-variant-alternates:normal;font-variant-east-asian:normal;font-feature-settings:normal;font-variation-settings:normal;text-indent:0;text-align:end;text-decoration:none;text-decoration-line:none;text-decoration-style:solid;text-decoration-color:#000000;letter-spacing:normal;word-spacing:normal;text-transform:none;writing-mode:lr-tb;direction:ltr;text-orientation:mixed;dominant-baseline:auto;baseline-shift:baseline;text-anchor:end;white-space:normal;shape-padding:0;shape-margin:0;inline-size:0;clip-rule:nonzero;display:inline;overflow:visible;visibility:visible;isolation:auto;mix-blend-mode:normal;color-interpolation:sRGB;color-interpolation-filters:linearRGB;solid-color:#000000;solid-opacity:1;vector-effect:none;fill:#4d4d4d;fill-opacity:1;fill-rule:nonzero;stroke:none;stroke-width:1;stroke-linecap:round;stroke-linejoin:miter;stroke-miterlimit:4;stroke-dasharray:none;stroke-dashoffset:0;stroke-opacity:1;color-rendering:auto;image-rendering:auto;shape-rendering:auto;text-rendering:auto;enable-background:accumulate;stop-color:#000000"
       d="m 4.908803,222.58494 c 5.5638,0.9755 11.0144,1.9698 16.4191,2.962 1.9126,0.3514 3.8211,0.7017 5.7309,1.0507 v -68.9528 a 11.07555,11.07555 0 0 0 -11.0742,-11.0765 11.07555,11.07555 0 0 0 -11.0758,11.0765 z"
       id="path1593-9" />
    <path
       style="color:#000000;font-style:normal;font-variant:normal;font-weight:normal;font-stretch:normal;font-size:50.8px;line-height:1.25;font-family:sans-serif;font-variant-ligatures:normal;font-variant-position:normal;font-variant-caps:normal;font-variant-numeric:normal;font-variant-alternates:normal;font-variant-east-asian:normal;font-feature-settings:normal;font-variation-settings:normal;text-indent:0;text-align:end;text-decoration:none;text-decoration-line:none;text-decoration-style:solid;text-decoration-color:#000000;letter-spacing:normal;word-spacing:normal;text-transform:none;writing-mode:lr-tb;direction:ltr;text-orientation:mixed;dominant-baseline:auto;baseline-shift:baseline;text-anchor:end;white-space:normal;shape-padding:0;shape-margin:0;inline-size:0;clip-rule:nonzero;display:inline;overflow:visible;visibility:visible;isolation:auto;mix-blend-mode:normal;color-interpolation:sRGB;color-interpolation-filters:linearRGB;solid-color:#000000;solid-opacity:1;vector-effect:none;fill:#4d4d4d;fill-opacity:1;fill-rule:nonzero;stroke:none;stroke-width:1;stroke-linecap:round;stroke-linejoin:miter;stroke-miterlimit:4;stroke-dasharray:none;stroke-dashoffset:0;stroke-opacity:1;color-rendering:auto;image-rendering:auto;shape-rendering:auto;text-rendering:auto;enable-background:accumulate;stop-color:#000000"
       d="m -46.259697,146.55614 c -4.8058,0 -12.6698,-0.081 -20.7352,4.2471 -8.0654,4.3278 -14.7474,14.6359 -14.7474,27.3576 v 18.9678 h -9.4444 a 11.075562,11.075562 0 0 0 -11.079903,11.0799 11.075562,11.075562 0 0 0 0.9901,4.5807 c 34.666403,0.3871 60.776703,2.866 83.327803,6.1127 a 11.075562,11.075562 0 0 0 8.1741,-10.6934 11.075562,11.075562 0 0 0 -11.0799,-11.0799 h -38.7274 v -18.9678 c 0,-6.8146 1.1134,-6.7905 3.0603,-7.8353 1.9468,-1.0446 6.2765,-1.6098 10.2619,-1.6098 2.2187,0 8.506,1.0176 13.4545,2.1638 4.9483,1.1462 8.864,2.295 8.864,2.295 a 11.075562,11.075562 0 0 0 13.7181,-7.5454 11.075562,11.075562 0 0 0 -7.5448,-13.7443 c 0,0 -4.4563,-1.2896 -10.051,-2.5852 -5.595,-1.296 -12.0388,-2.7435 -18.4408,-2.7435 z"
       id="path839-6-3-6-9-4-5-5" />
  </g>
</svg>
